<svg width="103" height="16" viewBox="0 0 103 16" fill="none" xmlns="http://www.w3.org/2000/svg">
<path d="M-1.84774e-06 10.624C1.35466 9.53599 2.416 8.64533 3.184 7.95199C3.952 7.24799 4.59733 6.51733 5.12 5.75999C5.65333 4.99199 5.92 4.23999 5.92 3.50399C5.92 2.81066 5.74933 2.26666 5.408 1.87199C5.07733 1.46666 4.53866 1.26399 3.792 1.26399C3.06667 1.26399 2.50133 1.49332 2.096 1.95199C1.70133 2.39999 1.488 3.00266 1.456 3.75999H0.0479981C0.0906648 2.56533 0.453332 1.64266 1.136 0.991992C1.81866 0.341325 2.69866 0.0159912 3.776 0.0159912C4.87466 0.0159912 5.744 0.319991 6.384 0.927992C7.03467 1.53599 7.36 2.37333 7.36 3.43999C7.36 4.32533 7.09333 5.18933 6.56 6.03199C6.03733 6.86399 5.44 7.59999 4.768 8.23999C4.096 8.86933 3.23733 9.60533 2.192 10.448H7.696V11.664H-1.84774e-06V10.624ZM9.37912 5.88799C9.37912 4.05333 9.67779 2.62399 10.2751 1.59999C10.8725 0.565325 11.9178 0.0479918 13.4111 0.0479918C14.8938 0.0479918 15.9338 0.565325 16.5311 1.59999C17.1285 2.62399 17.4271 4.05333 17.4271 5.88799C17.4271 7.75466 17.1285 9.20533 16.5311 10.24C15.9338 11.2747 14.8938 11.792 13.4111 11.792C11.9178 11.792 10.8725 11.2747 10.2751 10.24C9.67779 9.20533 9.37912 7.75466 9.37912 5.88799ZM15.9871 5.88799C15.9871 4.95999 15.9231 4.17599 15.7951 3.53599C15.6778 2.88533 15.4271 2.36266 15.0431 1.96799C14.6698 1.57333 14.1258 1.37599 13.4111 1.37599C12.6858 1.37599 12.1311 1.57333 11.7471 1.96799C11.3738 2.36266 11.1231 2.88533 10.9951 3.53599C10.8778 4.17599 10.8191 4.95999 10.8191 5.88799C10.8191 6.84799 10.8778 7.65333 10.9951 8.30399C11.1231 8.95466 11.3738 9.47733 11.7471 9.87199C12.1311 10.2667 12.6858 10.464 13.4111 10.464C14.1258 10.464 14.6698 10.2667 15.0431 9.87199C15.4271 9.47733 15.6778 8.95466 15.7951 8.30399C15.9231 7.65333 15.9871 6.84799 15.9871 5.88799ZM19.25 10.624C20.6047 9.53599 21.666 8.64533 22.434 7.95199C23.202 7.24799 23.8473 6.51733 24.37 5.75999C24.9033 4.99199 25.17 4.23999 25.17 3.50399C25.17 2.81066 24.9993 2.26666 24.658 1.87199C24.3273 1.46666 23.7887 1.26399 23.042 1.26399C22.3167 1.26399 21.7513 1.49332 21.346 1.95199C20.9513 2.39999 20.738 3.00266 20.706 3.75999H19.298C19.3407 2.56533 19.7033 1.64266 20.386 0.991992C21.0687 0.341325 21.9487 0.0159912 23.026 0.0159912C24.1247 0.0159912 24.994 0.319991 25.634 0.927992C26.2847 1.53599 26.61 2.37333 26.61 3.43999C26.61 4.32533 26.3433 5.18933 25.81 6.03199C25.2873 6.86399 24.69 7.59999 24.018 8.23999C23.346 8.86933 22.4873 9.60533 21.442 10.448H26.946V11.664H19.25V10.624ZM28.5971 3.13599C28.6718 2.15466 29.0505 1.38666 29.7331 0.831991C30.4158 0.277325 31.3011 -8.58307e-06 32.3891 -8.58307e-06C33.1145 -8.58307e-06 33.7385 0.133325 34.2611 0.399992C34.7945 0.655992 35.1945 1.00799 35.4611 1.45599C35.7385 1.90399 35.8771 2.41066 35.8771 2.97599C35.8771 3.63733 35.6851 4.20799 35.3011 4.68799C34.9278 5.16799 34.4371 5.47733 33.8291 5.61599V5.69599C34.5225 5.86666 35.0718 6.20266 35.4771 6.70399C35.8825 7.20533 36.0851 7.86133 36.0851 8.67199C36.0851 9.27999 35.9465 9.82933 35.6691 10.32C35.3918 10.8 34.9758 11.1787 34.4211 11.456C33.8665 11.7333 33.1998 11.872 32.4211 11.872C31.2905 11.872 30.3625 11.5787 29.6371 10.992C28.9118 10.3947 28.5065 9.55199 28.4211 8.46399H29.8291C29.9038 9.10399 30.1651 9.62666 30.6131 10.032C31.0611 10.4373 31.6585 10.64 32.4051 10.64C33.1518 10.64 33.7171 10.448 34.1011 10.064C34.4958 9.66933 34.6931 9.16266 34.6931 8.54399C34.6931 7.74399 34.4265 7.16799 33.8931 6.81599C33.3598 6.46399 32.5545 6.28799 31.4771 6.28799H31.1091V5.07199H31.4931C32.4745 5.06133 33.2158 4.90133 33.7171 4.59199C34.2185 4.27199 34.4691 3.78133 34.4691 3.11999C34.4691 2.55466 34.2825 2.10133 33.9091 1.75999C33.5465 1.41866 33.0238 1.24799 32.3411 1.24799C31.6798 1.24799 31.1465 1.41866 30.7411 1.75999C30.3358 2.10133 30.0958 2.55999 30.0211 3.13599H28.5971ZM47.6766 0.527991C48.754 0.527991 49.714 0.773325 50.5566 1.26399C51.3993 1.74399 52.05 2.41599 52.5086 3.27999C52.978 4.13333 53.2126 5.10933 53.2126 6.20799C53.2126 7.30666 52.978 8.28799 52.5086 9.15199C52.05 10.0053 51.3993 10.6773 50.5566 11.168C49.714 11.648 48.754 11.888 47.6766 11.888C46.5886 11.888 45.6233 11.648 44.7806 11.168C43.938 10.6773 43.282 10.0053 42.8126 9.15199C42.3433 8.28799 42.1086 7.30666 42.1086 6.20799C42.1086 5.10933 42.3433 4.13333 42.8126 3.27999C43.282 2.41599 43.938 1.74399 44.7806 1.26399C45.6233 0.773325 46.5886 0.527991 47.6766 0.527991ZM47.6766 1.16799C46.6846 1.16799 45.8206 1.38133 45.0846 1.80799C44.3486 2.22399 43.7833 2.81066 43.3886 3.56799C42.994 4.32533 42.7966 5.20533 42.7966 6.20799C42.7966 7.19999 42.994 8.07999 43.3886 8.84799C43.7833 9.60533 44.3486 10.1973 45.0846 10.624C45.8206 11.0507 46.6846 11.264 47.6766 11.264C48.658 11.264 49.5113 11.0507 50.2366 10.624C50.9726 10.1973 51.538 9.60533 51.9326 8.84799C52.3273 8.07999 52.5246 7.19999 52.5246 6.20799C52.5246 5.20533 52.3273 4.32533 51.9326 3.56799C51.538 2.81066 50.9726 2.22399 50.2366 1.80799C49.5113 1.38133 48.658 1.16799 47.6766 1.16799ZM47.6446 2.49599C47.0046 2.49599 46.418 2.64533 45.8846 2.94399C45.362 3.24266 44.946 3.67466 44.6366 4.23999C44.3273 4.79466 44.1726 5.44533 44.1726 6.19199C44.1726 6.93866 44.3273 7.59466 44.6366 8.15999C44.946 8.71466 45.362 9.14666 45.8846 9.45599C46.418 9.75466 47.0046 9.90399 47.6446 9.90399C48.4446 9.90399 49.138 9.69066 49.7246 9.26399C50.3113 8.82666 50.7113 8.24533 50.9246 7.51999H49.5806C49.2606 8.40533 48.6153 8.84799 47.6446 8.84799C47.0046 8.84799 46.482 8.61866 46.0766 8.15999C45.6713 7.70133 45.4686 7.05066 45.4686 6.20799C45.4686 5.35466 45.6713 4.69866 46.0766 4.23999C46.482 3.78132 47.0046 3.55199 47.6446 3.55199C48.114 3.55199 48.5193 3.66932 48.8606 3.90399C49.202 4.12799 49.442 4.45333 49.5806 4.87999H50.9246C50.722 4.12266 50.3273 3.53599 49.7406 3.11999C49.154 2.70399 48.4553 2.49599 47.6446 2.49599ZM63.0301 11.904C62.2941 11.904 61.6328 11.776 61.0461 11.52C60.4701 11.2533 60.0168 10.8907 59.6861 10.432C59.3555 9.96266 59.1848 9.42399 59.1741 8.81599H60.7261C60.7795 9.33866 60.9928 9.78133 61.3661 10.144C61.7501 10.496 62.3048 10.672 63.0301 10.672C63.7235 10.672 64.2675 10.5013 64.6621 10.16C65.0675 9.80799 65.2701 9.35999 65.2701 8.81599C65.2701 8.38933 65.1528 8.04266 64.9181 7.77599C64.6835 7.50933 64.3901 7.30666 64.0381 7.16799C63.6861 7.02933 63.2115 6.87999 62.6141 6.71999C61.8781 6.52799 61.2861 6.33599 60.8381 6.14399C60.4008 5.95199 60.0221 5.65333 59.7021 5.24799C59.3928 4.83199 59.2381 4.27733 59.2381 3.58399C59.2381 2.97599 59.3928 2.43732 59.7021 1.96799C60.0115 1.49866 60.4435 1.13599 60.9981 0.879992C61.5635 0.623992 62.2088 0.495992 62.9341 0.495992C63.9795 0.495992 64.8328 0.757325 65.4941 1.27999C66.1661 1.80266 66.5448 2.49599 66.6301 3.35999H65.0301C64.9768 2.93333 64.7528 2.55999 64.3581 2.23999C63.9635 1.90933 63.4408 1.74399 62.7901 1.74399C62.1821 1.74399 61.6861 1.90399 61.3021 2.22399C60.9181 2.53333 60.7261 2.97066 60.7261 3.53599C60.7261 3.94133 60.8381 4.27199 61.0621 4.52799C61.2968 4.78399 61.5795 4.98133 61.9101 5.11999C62.2515 5.24799 62.7261 5.39733 63.3341 5.56799C64.0701 5.77066 64.6621 5.97333 65.1101 6.17599C65.5581 6.36799 65.9421 6.67199 66.2621 7.08799C66.5821 7.49333 66.7421 8.04799 66.7421 8.75199C66.7421 9.29599 66.5981 9.80799 66.3101 10.288C66.0221 10.768 65.5955 11.1573 65.0301 11.456C64.4648 11.7547 63.7981 11.904 63.0301 11.904ZM70.3407 4.63999C70.6287 4.13866 71.0554 3.72266 71.6207 3.39199C72.1967 3.05066 72.8634 2.87999 73.6207 2.87999C74.3994 2.87999 75.1034 3.06666 75.7327 3.43999C76.3727 3.81333 76.8741 4.34133 77.2367 5.02399C77.5994 5.69599 77.7807 6.47999 77.7807 7.37599C77.7807 8.26133 77.5994 9.05066 77.2367 9.74399C76.8741 10.4373 76.3727 10.976 75.7327 11.36C75.1034 11.744 74.3994 11.936 73.6207 11.936C72.8741 11.936 72.2127 11.7707 71.6367 11.44C71.0714 11.0987 70.6394 10.6773 70.3407 10.176V15.952H68.8847V3.02399H70.3407V4.63999ZM76.2927 7.37599C76.2927 6.71466 76.1594 6.13866 75.8927 5.64799C75.6261 5.15733 75.2634 4.78399 74.8047 4.52799C74.3567 4.27199 73.8607 4.14399 73.3167 4.14399C72.7834 4.14399 72.2874 4.27733 71.8287 4.54399C71.3807 4.79999 71.0181 5.17866 70.7407 5.67999C70.4741 6.17066 70.3407 6.74133 70.3407 7.39199C70.3407 8.05333 70.4741 8.63466 70.7407 9.13599C71.0181 9.62666 71.3807 10.0053 71.8287 10.272C72.2874 10.528 72.7834 10.656 73.3167 10.656C73.8607 10.656 74.3567 10.528 74.8047 10.272C75.2634 10.0053 75.6261 9.62666 75.8927 9.13599C76.1594 8.63466 76.2927 8.04799 76.2927 7.37599ZM83.5212 11.936C82.6999 11.936 81.9532 11.7493 81.2812 11.376C80.6199 11.0027 80.0972 10.4747 79.7132 9.79199C79.3399 9.09866 79.1532 8.29866 79.1532 7.39199C79.1532 6.49599 79.3452 5.70666 79.7292 5.02399C80.1239 4.33066 80.6572 3.80266 81.3292 3.43999C82.0012 3.06666 82.7532 2.87999 83.5852 2.87999C84.4172 2.87999 85.1692 3.06666 85.8412 3.43999C86.5132 3.80266 87.0412 4.32533 87.4252 5.00799C87.8199 5.69066 88.0172 6.48533 88.0172 7.39199C88.0172 8.29866 87.8146 9.09866 87.4092 9.79199C87.0146 10.4747 86.4759 11.0027 85.7932 11.376C85.1106 11.7493 84.3532 11.936 83.5212 11.936ZM83.5212 10.656C84.0439 10.656 84.5346 10.5333 84.9932 10.288C85.4519 10.0427 85.8199 9.67466 86.0972 9.18399C86.3852 8.69333 86.5292 8.09599 86.5292 7.39199C86.5292 6.68799 86.3906 6.09066 86.1132 5.59999C85.8359 5.10933 85.4732 4.74666 85.0252 4.51199C84.5772 4.26666 84.0919 4.14399 83.5692 4.14399C83.0359 4.14399 82.5452 4.26666 82.0972 4.51199C81.6599 4.74666 81.3079 5.10933 81.0412 5.59999C80.7746 6.09066 80.6412 6.68799 80.6412 7.39199C80.6412 8.10666 80.7692 8.70933 81.0252 9.19999C81.2919 9.69066 81.6439 10.0587 82.0812 10.304C82.5186 10.5387 82.9986 10.656 83.5212 10.656ZM91.7076 4.22399V9.39199C91.7076 9.81866 91.7983 10.1227 91.9796 10.304C92.161 10.4747 92.4756 10.56 92.9236 10.56H93.9956V11.792H92.6836C91.873 11.792 91.265 11.6053 90.8596 11.232C90.4543 10.8587 90.2516 10.2453 90.2516 9.39199V4.22399H89.1156V3.02399H90.2516V0.815991H91.7076V3.02399H93.9956V4.22399H91.7076ZM98.8637 11.936C98.1917 11.936 97.5891 11.824 97.0557 11.6C96.5224 11.3653 96.1011 11.0453 95.7917 10.64C95.4824 10.224 95.3117 9.74933 95.2797 9.21599H96.7837C96.8264 9.65333 97.0291 10.0107 97.3917 10.288C97.7651 10.5653 98.2504 10.704 98.8477 10.704C99.4024 10.704 99.8397 10.5813 100.16 10.336C100.48 10.0907 100.64 9.78133 100.64 9.40799C100.64 9.02399 100.469 8.74133 100.128 8.55999C99.7864 8.36799 99.2584 8.18133 98.5437 7.99999C97.8931 7.82933 97.3597 7.65866 96.9437 7.48799C96.5384 7.30666 96.1864 7.04533 95.8877 6.70399C95.5997 6.35199 95.4557 5.89333 95.4557 5.32799C95.4557 4.87999 95.5891 4.46933 95.8557 4.09599C96.1224 3.72266 96.5011 3.42933 96.9917 3.21599C97.4824 2.99199 98.0424 2.87999 98.6717 2.87999C99.6424 2.87999 100.426 3.12532 101.024 3.61599C101.621 4.10666 101.941 4.77866 101.984 5.63199H100.528C100.496 5.17333 100.309 4.80533 99.9677 4.52799C99.6371 4.25066 99.1891 4.11199 98.6237 4.11199C98.1011 4.11199 97.6851 4.22399 97.3757 4.44799C97.0664 4.67199 96.9117 4.96533 96.9117 5.32799C96.9117 5.61599 97.0024 5.85599 97.1837 6.04799C97.3757 6.22933 97.6104 6.37866 97.8877 6.49599C98.1757 6.60266 98.5704 6.72533 99.0717 6.86399C99.7011 7.03466 100.213 7.20533 100.608 7.37599C101.002 7.53599 101.338 7.78133 101.616 8.11199C101.904 8.44266 102.053 8.87466 102.064 9.40799C102.064 9.88799 101.93 10.32 101.664 10.704C101.397 11.088 101.018 11.392 100.528 11.616C100.048 11.8293 99.4931 11.936 98.8637 11.936Z" fill="#212121" fill-opacity="0.7"/>
</svg>
